<?xml version="1.0" encoding="UTF-8" standalone="no"?>
<!DOCTYPE svg PUBLIC "-//W3C//DTD SVG 1.1//EN" "http://www.w3.org/Graphics/SVG/1.1/DTD/svg11.dtd">
<svg width="100%" height="100%" viewBox="0 0 485 380" version="1.1" xmlns="http://www.w3.org/2000/svg" xmlns:xlink="http://www.w3.org/1999/xlink" xml:space="preserve" xmlns:serif="http://www.serif.com/" style="fill-rule:evenodd;clip-rule:evenodd;stroke-linejoin:round;stroke-miterlimit:2;">
    <g transform="matrix(1,0,0,1,-15.2884,-70.2618)">
        <g transform="matrix(1.06637,0,0,1.05731,-1.01464,-22.5989)">
            <g transform="matrix(1.47468,0,0,0.410095,-121.424,37.4027)">
                <path d="M401.078,318.01L347.296,122.958L92.706,122.958L92.706,134.137L146.488,329.189L401.078,329.189L401.078,318.01Z" style="fill:rgb(47,47,47);"/>
            </g>
            <g transform="matrix(-0.00242081,-0.999997,0.410093,-0.00099276,84.5166,539.873)">
                <path d="M401.078,122.958L92.706,122.958L92.706,135.786L172.699,329.189L401.078,329.189L401.078,122.958Z" style="fill:rgb(47,47,47);"/>
            </g>
            <g transform="matrix(-0.00242081,-0.999997,0.410093,-0.00099276,272.532,539.222)">
                <path d="M401.078,122.958L92.706,122.958L92.706,135.786L172.699,329.189L401.078,329.189L401.078,122.958Z" style="fill:rgb(47,47,47);"/>
            </g>
        </g>
    </g>
</svg>
