<?xml version="1.0" encoding="UTF-8" standalone="no"?>
<!DOCTYPE svg PUBLIC "-//W3C//DTD SVG 1.1//EN" "http://www.w3.org/Graphics/SVG/1.1/DTD/svg11.dtd">
<svg width="100%" height="100%" viewBox="0 0 115 76" version="1.1" xmlns="http://www.w3.org/2000/svg" xmlns:xlink="http://www.w3.org/1999/xlink" xml:space="preserve" xmlns:serif="http://www.serif.com/" style="fill-rule:evenodd;clip-rule:evenodd;stroke-linejoin:round;stroke-miterlimit:2;">
    <g transform="matrix(1,0,0,1,0,-0.483345)">
        <g transform="matrix(1,0,0,1,-186.883,-214.842)">
            <g id="UKFlag" transform="matrix(0.223951,0,0,0.223951,186.883,195.556)">
                <path d="M503.172,423.725L8.828,423.725C3.953,423.725 0,419.772 0,414.897L0,97.104C0,92.229 3.953,88.276 8.828,88.276L503.173,88.276C508.048,88.276 512.001,92.229 512.001,97.104L512.001,414.897C512,419.772 508.047,423.725 503.172,423.725Z" style="fill:rgb(65,71,155);fill-rule:nonzero;"/>
                <path d="M512,97.104C512,92.229 508.047,88.276 503.172,88.276L463.677,88.276L300.137,195.423L300.137,88.276L211.861,88.276L211.861,195.423L48.322,88.276L8.828,88.276C3.953,88.276 0,92.229 0,97.104L0,119.935L140.309,211.862L0,211.862L0,300.138L140.309,300.138L0,392.066L0,414.897C0,419.772 3.953,423.725 8.828,423.725L48.323,423.725L211.863,316.578L211.863,423.725L300.139,423.725L300.139,316.578L463.679,423.725L503.174,423.725C508.049,423.725 512.002,419.772 512.002,414.897L512.002,392.066L371.693,300.139L512,300.139L512,211.863L371.691,211.863L512,119.935L512,97.104Z" style="fill:rgb(245,245,245);fill-rule:nonzero;"/>
                <path d="M512,229.518L282.483,229.518L282.483,88.276L229.517,88.276L229.517,229.518L0,229.518L0,282.483L229.517,282.483L229.517,423.725L282.483,423.725L282.483,282.483L512,282.483L512,229.518Z" style="fill:rgb(255,75,85);fill-rule:nonzero;"/>
                <path d="M178.948,300.138L0.25,416.135C0.875,420.398 4.39,423.725 8.827,423.725L20.986,423.725L211.376,300.139L178.948,300.139L178.948,300.138Z" style="fill:rgb(255,75,85);fill-rule:nonzero;"/>
                <path d="M346.388,300.138L313.96,300.138L504.073,423.542C508.504,423.07 512.001,419.452 512.001,414.896L512.001,407.638L346.388,300.138Z" style="fill:rgb(255,75,85);fill-rule:nonzero;"/>
                <path d="M0,106.849L161.779,211.863L194.207,211.863L5.143,89.137C2.123,90.54 0,93.555 0,97.104L0,106.849Z" style="fill:rgb(255,75,85);fill-rule:nonzero;"/>
                <path d="M332.566,211.863L511.693,95.586C510.949,91.464 507.509,88.277 503.172,88.277L490.525,88.277L300.138,211.863L332.566,211.863Z" style="fill:rgb(255,75,85);fill-rule:nonzero;"/>
            </g>
        </g>
    </g>
</svg>
